<svg xmlns="http://www.w3.org/2000/svg" class="main-svg" style="background: white;" width="954.74" height="525" xmlns:xlink="http://www.w3.org/1999/xlink"><defs id="defs-0331db"><g class="clips"/><g class="gradients"/></defs><g class="bglayer"/><g class="draglayer"/><g class="layer-below"><g class="imagelayer"/><g class="shapelayer"/></g><g class="cartesianlayer"/><g class="polarlayer"/><g class="ternarylayer"/><g class="geolayer"/><g class="funnelarealayer"/><g class="pielayer"><g class="trace" style="opacity: 1;" stroke-linejoin="round"><g class="slice"><path class="surface" style="fill: rgb(99, 110, 250); fill-opacity: 1; pointer-events: all; stroke: rgb(68, 68, 68); stroke-opacity: 1; stroke-width: 0;" d="M 485.5 210.5 l 0 -110.5 a 110.5 110.5 0 1 1 -37.6202 214.399 Z"/><g class="slicetext"><text class="slicetext" style="font-family: &quot;Open Sans&quot;,verdana,arial,sans-serif; font-size: 12px; white-space: pre; fill: rgb(255, 255, 255); fill-opacity: 1;" text-anchor="middle" transform="translate(539.914 217.018)" x="0" y="0" data-unformatted="A7&lt;br&gt;55.5%" data-math="N" data-notex="1"><tspan class="line" x="0" y="0" dy="0em">A7</tspan><tspan class="line" x="0" y="0" dy="1.3em">55.5%</tspan></text></g></g><g class="slice"><path class="surface" style="fill: rgb(239, 85, 59); fill-opacity: 1; pointer-events: all; stroke: rgb(68, 68, 68); stroke-opacity: 1; stroke-width: 0;" d="M 485.5 210.5 l -87.4992 67.4844 a 110.5 110.5 0 0 1 87.4992 -177.984 Z"/><g class="slicetext"><text class="slicetext" style="font-family: &quot;Open Sans&quot;,verdana,arial,sans-serif; font-size: 12px; white-space: pre; fill: rgb(68, 68, 68); fill-opacity: 1;" text-anchor="middle" transform="translate(433.232 181.777)" x="0" y="0" data-unformatted="A1&lt;br&gt;35.5%" data-math="N" data-notex="1"><tspan class="line" x="0" y="0" dy="0em">A1</tspan><tspan class="line" x="0" y="0" dy="1.3em">35.5%</tspan></text></g></g><g class="slice"><path class="surface" style="fill: rgb(0, 204, 150); fill-opacity: 1; pointer-events: all; stroke: rgb(68, 68, 68); stroke-opacity: 1; stroke-width: 0;" d="M 485.5 210.5 l -71.0434 84.635 a 110.5 110.5 0 0 1 -16.4557 -17.1506 Z"/><g class="slicetext"><text class="slicetext" style="font-family: &quot;Open Sans&quot;,verdana,arial,sans-serif; font-size: 12px; white-space: pre; fill: rgb(42, 63, 95); fill-opacity: 1;" text-anchor="middle" transform="translate(378.131 291.206)" x="0" y="0" data-unformatted="A3&lt;br&gt;3.43%" data-math="N" data-notex="1"><tspan class="line" x="0" y="0" dy="0em">A3</tspan><tspan class="line" x="0" y="0" dy="1.3em">3.43%</tspan></text></g></g><g class="slice"><path class="surface" style="fill: rgb(171, 99, 250); fill-opacity: 1; pointer-events: all; stroke: rgb(68, 68, 68); stroke-opacity: 1; stroke-width: 0;" d="M 485.5 210.5 l -51.8502 97.5798 a 110.5 110.5 0 0 1 -19.1933 -12.9448 Z"/><g class="slicetext"><text class="slicetext" style="font-family: &quot;Open Sans&quot;,verdana,arial,sans-serif; font-size: 12px; white-space: pre; fill: rgb(42, 63, 95); fill-opacity: 1;" text-anchor="middle" transform="translate(396.078 321.386)" x="0" y="0" data-unformatted="A4&lt;br&gt;3.34%" data-math="N" data-notex="1"><tspan class="line" x="0" y="0" dy="0em">A4</tspan><tspan class="line" x="0" y="0" dy="1.3em">3.34%</tspan></text></g><path class="textline" style="stroke: rgb(42, 63, 95); stroke-opacity: 1;" fill="none" stroke-width="1.5" d="M 423.713 302.111 V 324.416 h -7.54492"/></g><g class="slice"><path class="surface" style="fill: rgb(255, 161, 90); fill-opacity: 1; pointer-events: all; stroke: rgb(68, 68, 68); stroke-opacity: 1; stroke-width: 0;" d="M 485.5 210.5 l -39.4155 103.231 a 110.5 110.5 0 0 1 -12.4347 -5.65138 Z"/><g class="slicetext"><text class="slicetext" style="font-family: &quot;Open Sans&quot;,verdana,arial,sans-serif; font-size: 12px; white-space: pre; fill: rgb(42, 63, 95); fill-opacity: 1;" text-anchor="middle" transform="translate(412.145 351.566)" x="0" y="0" data-unformatted="A2&lt;br&gt;1.97%" data-math="N" data-notex="1"><tspan class="line" x="0" y="0" dy="0em">A2</tspan><tspan class="line" x="0" y="0" dy="1.3em">1.97%</tspan></text></g><path class="textline" style="stroke: rgb(42, 63, 95); stroke-opacity: 1;" fill="none" stroke-width="1.5" d="M 439.78 311.098 V 354.596 h -7.54492"/></g><g class="slice"><path class="surface" style="fill: rgb(25, 211, 243); fill-opacity: 1; pointer-events: all; stroke: rgb(68, 68, 68); stroke-opacity: 1; stroke-width: 0;" d="M 485.5 210.5 l -37.6202 103.899 a 110.5 110.5 0 0 1 -1.79533 -0.667719 Z"/><g class="slicetext"><text class="slicetext" style="font-family: &quot;Open Sans&quot;,verdana,arial,sans-serif; font-size: 12px; white-space: pre; fill: rgb(42, 63, 95); fill-opacity: 1;" text-anchor="middle" transform="translate(415.535 381.745)" x="0" y="0" data-unformatted="A6&lt;br&gt;0.276%" data-math="N" data-notex="1"><tspan class="line" x="0" y="0" dy="0em">A6</tspan><tspan class="line" x="0" y="0" dy="1.3em">0.276%</tspan></text></g><path class="textline" style="stroke: rgb(42, 63, 95); stroke-opacity: 1;" fill="none" stroke-width="1.5" d="M 446.981 314.069 V 384.776 h -7.54492"/></g><g class="slice"><path class="surface" style="fill: rgb(255, 102, 146); fill-opacity: 1; pointer-events: all; stroke: rgb(68, 68, 68); stroke-opacity: 1; stroke-width: 0;" d="M 485.5 210.5 l -37.6202 103.899 a 110.5 110.5 0 0 1 0 0 Z"/><g class="slicetext"><text class="slicetext" style="font-family: &quot;Open Sans&quot;,verdana,arial,sans-serif; font-size: 12px; white-space: pre; fill: rgb(42, 63, 95); fill-opacity: 1;" text-anchor="middle" transform="translate(430.064 411.925)" x="0" y="0" data-unformatted="A5&lt;br&gt;0%" data-math="N" data-notex="1"><tspan class="line" x="0" y="0" dy="0em">A5</tspan><tspan class="line" x="0" y="0" dy="1.3em">0%</tspan></text></g><path class="textline" style="stroke: rgb(42, 63, 95); stroke-opacity: 1;" fill="none" stroke-width="1.5" d="M 447.88 314.399 V 414.955 h -7.54492"/></g><g class="slice"><path class="surface" style="fill: rgb(182, 232, 128); fill-opacity: 1; pointer-events: all; stroke: rgb(68, 68, 68); stroke-opacity: 1; stroke-width: 0;" d="M 485.5 210.5 l -37.6202 103.899 a 110.5 110.5 0 0 1 0 0 Z"/><g class="slicetext"><text class="slicetext" style="font-family: &quot;Open Sans&quot;,verdana,arial,sans-serif; font-size: 12px; white-space: pre; fill: rgb(42, 63, 95); fill-opacity: 1;" text-anchor="middle" transform="translate(430.064 442.105)" x="0" y="0" data-unformatted="A8&lt;br&gt;0%" data-math="N" data-notex="1"><tspan class="line" x="0" y="0" dy="0em">A8</tspan><tspan class="line" x="0" y="0" dy="1.3em">0%</tspan></text></g><path class="textline" style="stroke: rgb(42, 63, 95); stroke-opacity: 1;" fill="none" stroke-width="1.5" d="M 447.88 314.399 V 445.135 h -7.54492"/></g><g class="slice"><path class="surface" style="fill: rgb(255, 151, 255); fill-opacity: 1; pointer-events: all; stroke: rgb(68, 68, 68); stroke-opacity: 1; stroke-width: 0;" d="M 485.5 210.5 l -37.6202 103.899 a 110.5 110.5 0 0 1 0 0 Z"/><g class="slicetext"><text class="slicetext" style="font-family: &quot;Open Sans&quot;,verdana,arial,sans-serif; font-size: 12px; white-space: pre; fill: rgb(42, 63, 95); fill-opacity: 1;" text-anchor="middle" transform="translate(430.064 472.284)" x="0" y="0" data-unformatted="A9&lt;br&gt;0%" data-math="N" data-notex="1"><tspan class="line" x="0" y="0" dy="0em">A9</tspan><tspan class="line" x="0" y="0" dy="1.3em">0%</tspan></text></g><path class="textline" style="stroke: rgb(42, 63, 95); stroke-opacity: 1;" fill="none" stroke-width="1.5" d="M 447.88 314.399 V 475.315 h -7.54492"/></g><g class="slice"><path class="surface" style="fill: rgb(254, 203, 82); fill-opacity: 1; pointer-events: all; stroke: rgb(68, 68, 68); stroke-opacity: 1; stroke-width: 0;" d="M 485.5 210.5 l -37.6202 103.899 a 110.5 110.5 0 0 1 0 0 Z"/><g class="slicetext"><text class="slicetext" style="font-family: &quot;Open Sans&quot;,verdana,arial,sans-serif; font-size: 12px; white-space: pre; fill: rgb(42, 63, 95); fill-opacity: 1;" text-anchor="middle" transform="translate(428.604 502.464)" x="0" y="0" data-unformatted="A10&lt;br&gt;0%" data-math="N" data-notex="1"><tspan class="line" x="0" y="0" dy="0em">A10</tspan><tspan class="line" x="0" y="0" dy="1.3em">0%</tspan></text></g><path class="textline" style="stroke: rgb(42, 63, 95); stroke-opacity: 1;" fill="none" stroke-width="1.5" d="M 447.88 314.399 V 505.494 h -7.54492"/></g></g></g><g class="treemaplayer"/><g class="sunburstlayer"/><g class="glimages"/></svg>